<?xml version="1.0" standalone="no"?>
<!DOCTYPE svg PUBLIC "-//W3C//DTD SVG 20010904//EN"
        "http://www.w3.org/TR/2001/REC-SVG-20010904/DTD/svg10.dtd">
<svg version="1.0" xmlns="http://www.w3.org/2000/svg"
     width="520.000000pt" height="520.000000pt" viewBox="0 0 520.000000 520.000000"
     preserveAspectRatio="xMidYMid meet">
    <metadata>
        Created by potrace 1.14, written by Peter Selinger 2001-2017
    </metadata>
    <g transform="translate(0.000000,520.000000) scale(0.100000,-0.100000)"
       fill="#000000" stroke="none">
        <path d="M2083 4450 c-12 -5 -29 -20 -39 -34 -15 -24 -16 -152 -16 -1719 0
-930 1 -1702 1 -1715 l1 -23 162 2 c184 1 212 9 226 62 5 17 9 363 10 767 0
404 1 759 1 788 l1 52 354 0 c194 0 368 3 385 6 47 10 61 46 62 157 1 50 1
100 0 110 -1 16 -27 17 -401 17 -220 0 -400 3 -401 8 0 10 -1 1147 0 1200 l1
42 440 0 c305 0 447 3 464 11 13 7 30 24 36 38 9 23 15 141 11 219 l-1 22
-637 -1 c-351 0 -648 -4 -660 -9z"/>
    </g>
</svg>
