<svg width="79" height="28" viewBox="0 0 79 28" fill="none" xmlns="http://www.w3.org/2000/svg">
    <path d="M8.51461 7V7.93C8.51461 8.25 8.46461 8.47 8.36461 8.59C8.28461 8.69 8.08461 8.74 7.76461 8.74H2.78461V16.24H7.61461V17.17C7.61461 17.49 7.56461 17.71 7.46461 17.83C7.38461 17.93 7.18461 17.98 6.86461 17.98H2.78461V27.19C2.78461 27.51 2.72461 27.73 2.60461 27.85C2.50461 27.95 2.29461 28 1.97461 28H0.38461V7.81C0.38461 7.49 0.43461 7.28 0.53461 7.18C0.65461 7.06 0.87461 7 1.19461 7H8.51461ZM14.28 5.6V27.136C14.28 27.4773 14.216 27.712 14.088 27.84C13.9813 27.9467 13.7573 28 13.416 28H11.72V6.464C11.72 6.12267 11.7733 5.89867 11.88 5.792C12.008 5.664 12.2427 5.6 12.584 5.6H14.28ZM23.9503 28C23.5876 28 23.3496 27.9433 23.2363 27.83C23.1456 27.694 23.1003 27.4447 23.1003 27.082V26.028H26.0583C26.7609 26.028 27.2029 25.8807 27.3843 25.586C27.5656 25.2913 27.6563 24.7927 27.6563 24.09V8.11C27.6563 7.40733 27.5656 6.90867 27.3843 6.614C27.2029 6.31933 26.7609 6.172 26.0583 6.172H21.7403V28H19.0203V5.118C19.0203 4.75533 19.0769 4.51733 19.1903 4.404C19.3263 4.268 19.5756 4.2 19.9383 4.2H27.1463C28.3249 4.2 29.1523 4.44933 29.6283 4.948C30.1269 5.424 30.3763 6.25133 30.3763 7.43V24.77C30.3763 25.9487 30.1269 26.7873 29.6283 27.286C29.1523 27.762 28.3249 28 27.1463 28H23.9503ZM38.2142 15.976V25.912H45.0902V27.028C45.0902 27.412 45.0182 27.676 44.8742 27.82C44.7542 27.94 44.5022 28 44.1182 28H35.3342V3.772C35.3342 3.388 35.3942 3.136 35.5142 3.016C35.6582 2.872 35.9222 2.8 36.3062 2.8H45.0902V3.916C45.0902 4.3 45.0302 4.564 44.9102 4.708C44.8142 4.828 44.5742 4.888 44.1902 4.888H38.2142V13.888H44.0102V15.004C44.0102 15.388 43.9502 15.652 43.8302 15.796C43.7342 15.916 43.4942 15.976 43.1102 15.976H38.2142ZM52.4344 23.63C52.4344 24.4153 52.5357 24.9727 52.7384 25.302C52.941 25.6313 53.435 25.796 54.2204 25.796H57.6404C58.4257 25.796 58.9197 25.6313 59.1224 25.302C59.325 24.9727 59.4264 24.4153 59.4264 23.63V5.77C59.4264 4.98466 59.325 4.42733 59.1224 4.098C58.9197 3.76867 58.4257 3.604 57.6404 3.604H54.2204C53.435 3.604 52.941 3.76867 52.7384 4.098C52.5357 4.42733 52.4344 4.98466 52.4344 5.77V23.63ZM49.3944 5.01C49.3944 3.69267 49.6604 2.768 50.1924 2.236C50.7497 1.67867 51.687 1.4 53.0044 1.4H58.8564C60.1737 1.4 61.0984 1.67867 61.6304 2.236C62.1877 2.768 62.4664 3.69267 62.4664 5.01V24.39C62.4664 25.7073 62.1877 26.6447 61.6304 27.202C61.0984 27.734 60.1737 28 58.8564 28H53.0044C51.687 28 50.7497 27.734 50.1924 27.202C49.6604 26.6447 49.3944 25.7073 49.3944 24.39V5.01ZM78.5806 24.2C78.5806 25.5867 78.2873 26.5733 77.7006 27.16C77.1406 27.72 76.1673 28 74.7806 28H69.9006C69.1273 28 68.5673 27.8133 68.2206 27.44C67.9006 27.04 67.6606 26.4533 67.5006 25.68H73.5006C74.3273 25.68 74.8473 25.5067 75.0606 25.16C75.274 24.8133 75.3806 24.2267 75.3806 23.4V16.92C75.3806 16.0933 75.2606 15.5067 75.0206 15.16C74.8073 14.8133 74.2473 14.64 73.3406 14.64H71.3006C69.914 14.64 68.9273 14.36 68.3406 13.8C67.7806 13.2133 67.5006 12.2267 67.5006 10.84V3.8C67.5006 2.41333 67.7806 1.44 68.3406 0.879999C68.9273 0.293332 69.914 -1.90735e-06 71.3006 -1.90735e-06H76.0606C76.834 -1.90735e-06 77.3806 0.199998 77.7006 0.599998C78.0473 0.973332 78.3006 1.54667 78.4606 2.32H72.5806C71.754 2.32 71.234 2.49333 71.0206 2.84C70.8073 3.18667 70.7006 3.77333 70.7006 4.6V10.04C70.7006 10.8667 70.8073 11.4533 71.0206 11.8C71.234 12.1467 71.754 12.32 72.5806 12.32H74.7806C76.1673 12.32 77.1406 12.6133 77.7006 13.2C78.2873 13.76 78.5806 14.7333 78.5806 16.12V24.2Z"
          fill="#FF0000"/>
</svg>
