<svg width="261" height="24" viewBox="0 0 261 24" fill="none" xmlns="http://www.w3.org/2000/svg">
    <path d="M14.986 8.47434L12.4538 2.98442C12.2751 2.59699 11.7244 2.59699 11.5457 2.98442L9.01347 8.47434C8.94064 8.63224 8.791 8.74096 8.61831 8.76144L2.61459 9.47327C2.19089 9.52351 2.02073 10.0472 2.33398 10.3369L6.77269 14.4417C6.90036 14.5597 6.95752 14.7357 6.92363 14.9062L5.74537 20.8361C5.66222 21.2545 6.1077 21.5782 6.48001 21.3698L11.7555 18.4168C11.9073 18.3319 12.0922 18.3319 12.244 18.4168L17.5195 21.3698C17.8918 21.5782 18.3373 21.2545 18.2541 20.8361L17.0759 14.9062C17.042 14.7357 17.0991 14.5597 17.2268 14.4417L21.6655 10.3369C21.9788 10.0472 21.8086 9.52351 21.3849 9.47327L15.3812 8.76144C15.2085 8.74096 15.0589 8.63224 14.986 8.47434Z"
          stroke="#FF0000" stroke-width="2" stroke-linecap="round" stroke-linejoin="round"/>
    <path d="M46.986 8.47434L44.4538 2.98442C44.2751 2.59699 43.7244 2.59699 43.5457 2.98442L41.0135 8.47434C40.9406 8.63224 40.791 8.74096 40.6183 8.76144L34.6146 9.47327C34.1909 9.52351 34.0207 10.0472 34.334 10.3369L38.7727 14.4417C38.9004 14.5597 38.9575 14.7357 38.9236 14.9062L37.7454 20.8361C37.6622 21.2545 38.1077 21.5782 38.48 21.3698L43.7555 18.4168C43.9073 18.3319 44.0922 18.3319 44.244 18.4168L49.5195 21.3698C49.8918 21.5782 50.3373 21.2545 50.2541 20.8361L49.0759 14.9062C49.042 14.7357 49.0991 14.5597 49.2268 14.4417L53.6655 10.3369C53.9788 10.0472 53.8086 9.52351 53.3849 9.47327L47.3812 8.76144C47.2085 8.74096 47.0589 8.63224 46.986 8.47434Z"
          stroke="#FF0000" stroke-width="2" stroke-linecap="round" stroke-linejoin="round"/>
    <path d="M78.986 8.47434L76.4538 2.98442C76.2751 2.59699 75.7244 2.59699 75.5457 2.98442L73.0135 8.47434C72.9406 8.63224 72.791 8.74096 72.6183 8.76144L66.6146 9.47327C66.1909 9.52351 66.0207 10.0472 66.334 10.3369L70.7727 14.4417C70.9004 14.5597 70.9575 14.7357 70.9236 14.9062L69.7454 20.8361C69.6622 21.2545 70.1077 21.5782 70.48 21.3698L75.7555 18.4168C75.9073 18.3319 76.0922 18.3319 76.244 18.4168L81.5195 21.3698C81.8918 21.5782 82.3373 21.2545 82.2541 20.8361L81.0759 14.9062C81.042 14.7357 81.0991 14.5597 81.2268 14.4417L85.6655 10.3369C85.9788 10.0472 85.8086 9.52351 85.3849 9.47327L79.3812 8.76144C79.2085 8.74096 79.0589 8.63224 78.986 8.47434Z"
          stroke="#FF0000" stroke-width="2" stroke-linecap="round" stroke-linejoin="round"/>
    <path d="M110.986 8.47434L108.454 2.98442C108.275 2.59699 107.724 2.59699 107.546 2.98442L105.013 8.47434C104.941 8.63224 104.791 8.74096 104.618 8.76144L98.6146 9.47327C98.1909 9.52351 98.0207 10.0472 98.334 10.3369L102.773 14.4417C102.9 14.5597 102.958 14.7357 102.924 14.9062L101.745 20.8361C101.662 21.2545 102.108 21.5782 102.48 21.3698L107.756 18.4168C107.907 18.3319 108.092 18.3319 108.244 18.4168L113.519 21.3698C113.892 21.5782 114.337 21.2545 114.254 20.8361L113.076 14.9062C113.042 14.7357 113.099 14.5597 113.227 14.4417L117.666 10.3369C117.979 10.0472 117.809 9.52351 117.385 9.47327L111.381 8.76144C111.209 8.74096 111.059 8.63224 110.986 8.47434Z"
          stroke="#FF0000" stroke-width="2" stroke-linecap="round" stroke-linejoin="round"/>
    <g opacity="0.4">
        <path d="M142.986 8.47434L140.454 2.98442C140.275 2.59699 139.724 2.59699 139.546 2.98442L137.013 8.47434C136.941 8.63224 136.791 8.74096 136.618 8.76144L130.615 9.47327C130.191 9.52351 130.021 10.0472 130.334 10.3369L134.773 14.4417C134.9 14.5597 134.958 14.7357 134.924 14.9062L133.745 20.8361C133.662 21.2545 134.108 21.5782 134.48 21.3698L139.756 18.4168C139.907 18.3319 140.092 18.3319 140.244 18.4168L145.519 21.3698C145.892 21.5782 146.337 21.2545 146.254 20.8361L145.076 14.9062C145.042 14.7357 145.099 14.5597 145.227 14.4417L149.666 10.3369C149.979 10.0472 149.809 9.52351 149.385 9.47327L143.381 8.76144C143.209 8.74096 143.059 8.63224 142.986 8.47434Z"
              stroke="#FF0000" stroke-width="2" stroke-linecap="round" stroke-linejoin="round"/>
    </g>
    <path d="M197.388 18.2109C196.175 18.2109 195.161 17.8682 194.347 17.1826C193.538 16.4971 193.102 15.6152 193.037 14.5371H194.593C194.663 15.2109 194.959 15.7617 195.48 16.1895C196.002 16.6113 196.644 16.8223 197.405 16.8223C198.267 16.8223 198.967 16.5527 199.506 16.0137C200.051 15.4746 200.323 14.7773 200.323 13.9219C200.323 13.0664 200.051 12.3662 199.506 11.8213C198.967 11.2705 198.275 10.9951 197.432 10.9951C196.84 10.9951 196.304 11.1211 195.823 11.373C195.343 11.625 194.974 11.9736 194.716 12.4189H193.23L193.925 5.31738H201.185V6.72363H195.226L194.839 10.8545H194.874C195.161 10.4736 195.554 10.1748 196.052 9.95801C196.556 9.74121 197.109 9.63281 197.713 9.63281C198.932 9.63281 199.934 10.0342 200.719 10.8369C201.51 11.6338 201.905 12.6475 201.905 13.8779C201.905 15.1494 201.483 16.1895 200.64 16.998C199.796 17.8066 198.712 18.2109 197.388 18.2109ZM206.494 18V8.85938H207.935V10.3535H207.97C208.123 9.84375 208.395 9.44238 208.788 9.14941C209.186 8.85059 209.652 8.70117 210.185 8.70117C210.308 8.70117 210.513 8.72168 210.801 8.7627V10.248C210.636 10.1895 210.364 10.1602 209.983 10.1602C209.391 10.1602 208.917 10.3564 208.559 10.749C208.202 11.1416 208.023 11.6602 208.023 12.3047V18H206.494ZM214.914 10.0283C214.205 10.0283 213.616 10.2744 213.148 10.7666C212.685 11.2529 212.43 11.8799 212.383 12.6475H217.349C217.331 11.874 217.1 11.2441 216.654 10.7578C216.209 10.2715 215.629 10.0283 214.914 10.0283ZM217.314 15.3809H218.816C218.682 16.1895 218.26 16.8545 217.551 17.376C216.848 17.8975 216.001 18.1582 215.011 18.1582C213.704 18.1582 212.676 17.7363 211.926 16.8926C211.176 16.0488 210.801 14.9062 210.801 13.4648C210.801 12.0352 211.176 10.8838 211.926 10.0107C212.682 9.1377 213.687 8.70117 214.941 8.70117C216.171 8.70117 217.144 9.11426 217.858 9.94043C218.573 10.7666 218.931 11.874 218.931 13.2627V13.8428H212.374V13.9307C212.374 14.8096 212.614 15.5127 213.095 16.04C213.575 16.5674 214.226 16.8311 215.046 16.8311C215.62 16.8311 216.109 16.6992 216.514 16.4355C216.918 16.1719 217.185 15.8203 217.314 15.3809ZM227.615 8.85938L224.257 18H222.693L219.327 8.85938H220.935L223.457 16.374H223.493L226.024 8.85938H227.615ZM228.538 18V8.85938H230.067V18H228.538ZM229.303 7.32129C229.045 7.32129 228.822 7.22754 228.635 7.04004C228.447 6.85254 228.353 6.62988 228.353 6.37207C228.353 6.1084 228.447 5.88574 228.635 5.7041C228.822 5.5166 229.045 5.42285 229.303 5.42285C229.566 5.42285 229.792 5.5166 229.979 5.7041C230.167 5.88574 230.261 6.1084 230.261 6.37207C230.261 6.62988 230.167 6.85254 229.979 7.04004C229.792 7.22754 229.566 7.32129 229.303 7.32129ZM235.438 10.0283C234.729 10.0283 234.14 10.2744 233.671 10.7666C233.208 11.2529 232.953 11.8799 232.906 12.6475H237.872C237.855 11.874 237.623 11.2441 237.178 10.7578C236.733 10.2715 236.153 10.0283 235.438 10.0283ZM237.837 15.3809H239.34C239.205 16.1895 238.783 16.8545 238.074 17.376C237.371 17.8975 236.525 18.1582 235.534 18.1582C234.228 18.1582 233.199 17.7363 232.449 16.8926C231.699 16.0488 231.324 14.9062 231.324 13.4648C231.324 12.0352 231.699 10.8838 232.449 10.0107C233.205 9.1377 234.21 8.70117 235.464 8.70117C236.694 8.70117 237.667 9.11426 238.382 9.94043C239.097 10.7666 239.454 11.874 239.454 13.2627V13.8428H232.898V13.9307C232.898 14.8096 233.138 15.5127 233.618 16.04C234.099 16.5674 234.749 16.8311 235.569 16.8311C236.144 16.8311 236.633 16.6992 237.037 16.4355C237.442 16.1719 237.708 15.8203 237.837 15.3809ZM252.269 8.85938L249.72 18H248.165L246.099 10.9248H246.064L244.007 18H242.452L239.894 8.85938H241.415L243.243 16.2949H243.278L245.343 8.85938H246.82L248.894 16.2949H248.929L250.757 8.85938H252.269ZM253.008 11.3818C253.008 10.5967 253.324 9.95508 253.957 9.45703C254.596 8.95312 255.416 8.70117 256.418 8.70117C257.361 8.70117 258.146 8.95312 258.773 9.45703C259.4 9.96094 259.731 10.5996 259.766 11.373H258.307C258.255 10.9277 258.056 10.5791 257.71 10.3271C257.37 10.0752 256.922 9.94922 256.365 9.94922C255.808 9.94922 255.36 10.0752 255.02 10.3271C254.681 10.5732 254.511 10.8984 254.511 11.3027C254.511 11.9238 255.017 12.3633 256.031 12.6211L257.446 12.9639C258.366 13.1982 259.014 13.5029 259.389 13.8779C259.769 14.2471 259.96 14.7686 259.96 15.4424C259.96 16.2393 259.62 16.8926 258.94 17.4023C258.261 17.9062 257.388 18.1582 256.321 18.1582C255.325 18.1582 254.502 17.9121 253.851 17.4199C253.207 16.9219 252.844 16.2656 252.762 15.4512H254.291C254.461 16.4238 255.17 16.9102 256.418 16.9102C257.033 16.9102 257.519 16.79 257.877 16.5498C258.24 16.3037 258.422 15.9727 258.422 15.5566C258.422 15.2285 258.313 14.9678 258.097 14.7744C257.886 14.5811 257.525 14.417 257.016 14.2822L255.407 13.8691C253.807 13.459 253.008 12.6299 253.008 11.3818Z"
          fill="#FF0000"/>
</svg>
